<?xml version="1.0" encoding="utf-8"?>
<svg xmlns="http://www.w3.org/2000/svg" width="1920" zoomAndPan="magnify" viewBox="0 0 1440 809.999993" height="1080" preserveAspectRatio="none" version="1.0" xmlns:bx="https://boxy-svg.com"><defs><bx:export><bx:file format="svg" path="nuage1.svg"/></bx:export></defs><path fill="#ff999a" d="M 1260.800781 77.621094 L 1260.800781 73.574219 L 1273.027344 73.574219 L 1273.027344 65.472656 L 1285.25 65.472656 L 1285.25 61.421875 L 1297.476562 61.421875 L 1297.476562 65.472656 L 1309.703125 65.472656 L 1309.703125 69.523438 L 1313.777344 69.523438 L 1313.777344 61.421875 L 1321.929688 61.421875 L 1321.929688 57.371094 L 1342.304688 57.371094 L 1342.304688 61.421875 L 1350.457031 61.421875 L 1350.457031 65.472656 L 1354.53125 65.472656 L 1354.53125 69.523438 L 1358.609375 69.523438 L 1358.609375 73.574219 L 1362.683594 73.574219 L 1362.683594 77.621094 L 1370.832031 77.621094 L 1370.832031 73.574219 L 1374.910156 73.574219 L 1374.910156 69.523438 L 1383.058594 69.523438 L 1383.058594 65.472656 L 1395.285156 65.472656 L 1395.285156 69.523438 L 1403.4375 69.523438 L 1403.4375 61.421875 L 1407.511719 61.421875 L 1407.511719 57.371094 L 1411.585938 57.371094 L 1411.585938 53.324219 L 1415.664062 53.324219 L 1415.664062 49.273438 L 1423.8125 49.273438 L 1423.8125 45.222656 L 1440.113281 45.222656 L 1440.113281 49.273438 L 1444.191406 49.273438 L 1444.191406 53.324219 L 1448.265625 53.324219 L 1448.265625 57.371094 L 1452.339844 57.371094 L 1452.339844 61.421875 L 1456.414062 61.421875 L 1456.414062 57.371094 L 1464.566406 57.371094 L 1464.566406 61.421875 L 1468.640625 61.421875 L 1468.640625 65.472656 L 1472.71875 65.472656 L 1472.71875 69.523438 L 1476.792969 69.523438 L 1476.792969 73.574219 L 1480.867188 73.574219 L 1480.867188 81.671875 L 1476.792969 81.671875 L 1476.792969 85.722656 L 1256.726562 85.722656 L 1256.726562 81.671875 L 1252.648438 81.671875 L 1252.648438 77.621094 Z M 1260.800781 77.621094 " fill-opacity="1" fill-rule="nonzero"/><path fill="#5561d3" d="M 1289.328125 81.671875 L 1289.328125 77.621094 L 1293.402344 77.621094 L 1293.402344 81.671875 L 1297.476562 81.671875 L 1297.476562 77.621094 L 1305.628906 77.621094 L 1305.628906 73.574219 L 1309.703125 73.574219 L 1309.703125 69.523438 L 1313.777344 69.523438 L 1313.777344 73.574219 L 1317.855469 73.574219 L 1317.855469 77.621094 L 1326.003906 77.621094 L 1326.003906 81.671875 L 1346.382812 81.671875 L 1346.382812 77.621094 L 1350.457031 77.621094 L 1350.457031 69.523438 L 1346.382812 69.523438 L 1346.382812 65.472656 L 1342.304688 65.472656 L 1342.304688 61.421875 L 1350.457031 61.421875 L 1350.457031 65.472656 L 1354.53125 65.472656 L 1354.53125 69.523438 L 1358.609375 69.523438 L 1358.609375 73.574219 L 1362.683594 73.574219 L 1362.683594 77.621094 L 1370.832031 77.621094 L 1370.832031 81.671875 L 1383.058594 81.671875 L 1383.058594 77.621094 L 1387.136719 77.621094 L 1387.136719 81.671875 L 1391.210938 81.671875 L 1391.210938 77.621094 L 1395.285156 77.621094 L 1395.285156 69.523438 L 1403.4375 69.523438 L 1403.4375 73.574219 L 1399.359375 73.574219 L 1399.359375 77.621094 L 1403.4375 77.621094 L 1403.4375 81.671875 L 1411.585938 81.671875 L 1411.585938 77.621094 L 1415.664062 77.621094 L 1415.664062 81.671875 L 1419.738281 81.671875 L 1419.738281 77.621094 L 1436.039062 77.621094 L 1436.039062 81.671875 L 1456.414062 81.671875 L 1456.414062 77.621094 L 1468.640625 77.621094 L 1468.640625 73.574219 L 1472.71875 73.574219 L 1472.71875 69.523438 L 1476.792969 69.523438 L 1476.792969 73.574219 L 1480.867188 73.574219 L 1480.867188 81.671875 L 1476.792969 81.671875 L 1476.792969 85.722656 L 1256.726562 85.722656 L 1256.726562 81.671875 Z M 1289.328125 81.671875 " fill-opacity="1" fill-rule="nonzero" style=""/><path fill="#5561d3" d="M 1444.191406 73.574219 L 1436.039062 73.574219 L 1436.039062 77.621094 L 1444.191406 77.621094 Z M 1444.191406 73.574219 " fill-opacity="1" fill-rule="nonzero"/><path fill="#5561d3" d="M 1309.703125 65.472656 L 1297.476562 65.472656 L 1297.476562 69.523438 L 1309.703125 69.523438 Z M 1309.703125 65.472656 " fill-opacity="1" fill-rule="nonzero"/><path fill="#8e68e6" d="M 1444.191406 73.574219 L 1448.265625 73.574219 L 1448.265625 77.621094 L 1456.414062 77.621094 L 1456.414062 81.671875 L 1436.039062 81.671875 L 1436.039062 77.621094 L 1444.191406 77.621094 Z M 1444.191406 73.574219 " fill-opacity="1" fill-rule="nonzero"/><path fill="#8e68e6" d="M 1436.039062 73.574219 L 1436.039062 69.523438 L 1440.113281 69.523438 L 1440.113281 53.324219 L 1444.191406 53.324219 L 1444.191406 57.371094 L 1448.265625 57.371094 L 1448.265625 69.523438 L 1444.191406 69.523438 L 1444.191406 73.574219 Z M 1436.039062 73.574219 " fill-opacity="1" fill-rule="nonzero"/><path fill="#8e68e6" d="M 1436.039062 73.574219 L 1419.738281 73.574219 L 1419.738281 77.621094 L 1436.039062 77.621094 Z M 1436.039062 73.574219 " fill-opacity="1" fill-rule="nonzero"/><path fill="#8e68e6" d="M 1419.738281 77.621094 L 1415.664062 77.621094 L 1415.664062 81.671875 L 1419.738281 81.671875 Z M 1419.738281 77.621094 " fill-opacity="1" fill-rule="nonzero"/><path fill="#8e68e6" d="M 1407.511719 77.621094 L 1411.585938 77.621094 L 1411.585938 81.671875 L 1403.4375 81.671875 L 1403.4375 77.621094 L 1399.359375 77.621094 L 1399.359375 73.574219 L 1407.511719 73.574219 Z M 1407.511719 77.621094 " fill-opacity="1" fill-rule="nonzero"/><path fill="#8e68e6" d="M 1436.039062 49.273438 L 1431.964844 49.273438 L 1431.964844 45.222656 L 1440.113281 45.222656 L 1440.113281 53.324219 L 1436.039062 53.324219 Z M 1436.039062 49.273438 " fill-opacity="1" fill-rule="nonzero"/><path fill="#8e68e6" d="M 1350.457031 69.523438 L 1346.382812 69.523438 L 1346.382812 77.621094 L 1350.457031 77.621094 Z M 1350.457031 69.523438 " fill-opacity="1" fill-rule="nonzero"/><path fill="#8e68e6" d="M 1346.382812 77.621094 L 1326.003906 77.621094 L 1326.003906 81.671875 L 1346.382812 81.671875 Z M 1346.382812 77.621094 " fill-opacity="1" fill-rule="nonzero"/><path fill="#8e68e6" d="M 1326.003906 73.574219 L 1317.855469 73.574219 L 1317.855469 77.621094 L 1326.003906 77.621094 Z M 1326.003906 73.574219 " fill-opacity="1" fill-rule="nonzero"/><path fill="#8e68e6" d="M 1338.230469 61.421875 L 1334.15625 61.421875 L 1334.15625 57.371094 L 1342.304688 57.371094 L 1342.304688 65.472656 L 1338.230469 65.472656 Z M 1338.230469 61.421875 " fill-opacity="1" fill-rule="nonzero"/><path fill="#8e68e6" d="M 1346.382812 65.472656 L 1342.304688 65.472656 L 1342.304688 69.523438 L 1346.382812 69.523438 Z M 1346.382812 65.472656 " fill-opacity="1" fill-rule="nonzero"/><path fill="#8e68e6" d="M 1309.703125 73.574219 L 1305.628906 73.574219 L 1305.628906 77.621094 L 1297.476562 77.621094 L 1297.476562 81.671875 L 1293.402344 81.671875 L 1293.402344 73.574219 L 1297.476562 73.574219 L 1297.476562 69.523438 L 1309.703125 69.523438 Z M 1309.703125 73.574219 " fill-opacity="1" fill-rule="nonzero"/><path fill="#8e68e6" d="M 1260.800781 77.621094 L 1260.800781 73.574219 L 1264.875 73.574219 L 1264.875 77.621094 L 1289.328125 77.621094 L 1289.328125 81.671875 L 1252.648438 81.671875 L 1252.648438 77.621094 Z M 1260.800781 77.621094 " fill-opacity="1" fill-rule="nonzero"/><path fill="#8e68e6" d="M 1297.476562 61.421875 L 1293.402344 61.421875 L 1293.402344 69.523438 L 1297.476562 69.523438 Z M 1297.476562 61.421875 " fill-opacity="1" fill-rule="nonzero"/><path fill="#fb6ba2" d="M 1293.402344 61.421875 L 1289.328125 61.421875 L 1289.328125 65.472656 L 1293.402344 65.472656 Z M 1293.402344 61.421875 " fill-opacity="1" fill-rule="nonzero"/><path fill="#fb6ba2" d="M 1346.382812 69.523438 L 1342.304688 69.523438 L 1342.304688 77.621094 L 1346.382812 77.621094 Z M 1346.382812 69.523438 " fill-opacity="1" fill-rule="nonzero"/><path fill="#fb6ba2" d="M 1326.003906 69.523438 L 1313.777344 69.523438 L 1313.777344 73.574219 L 1326.003906 73.574219 Z M 1326.003906 69.523438 " fill-opacity="1" fill-rule="nonzero"/><path fill="#fb6ba2" d="M 1419.738281 73.574219 L 1407.511719 73.574219 L 1407.511719 77.621094 L 1419.738281 77.621094 Z M 1419.738281 73.574219 " fill-opacity="1" fill-rule="nonzero"/><path fill="#fb6ba2" d="M 1407.511719 61.421875 L 1403.4375 61.421875 L 1403.4375 73.574219 L 1407.511719 73.574219 Z M 1407.511719 61.421875 " fill-opacity="1" fill-rule="nonzero"/><path fill="#fb6ba2" d="M 1436.039062 69.523438 L 1419.738281 69.523438 L 1419.738281 73.574219 L 1436.039062 73.574219 Z M 1436.039062 69.523438 " fill-opacity="1" fill-rule="nonzero"/><path fill="#fb6ba2" d="M 1440.113281 61.421875 L 1436.039062 61.421875 L 1436.039062 69.523438 L 1440.113281 69.523438 Z M 1440.113281 61.421875 " fill-opacity="1" fill-rule="nonzero"/><path fill="#fb6ba2" d="M 1395.285156 69.523438 L 1391.210938 69.523438 L 1391.210938 77.621094 L 1395.285156 77.621094 Z M 1395.285156 69.523438 " fill-opacity="1" fill-rule="nonzero"/><path fill="#fb6ba2" d="M 1391.210938 77.621094 L 1387.136719 77.621094 L 1387.136719 81.671875 L 1391.210938 81.671875 Z M 1391.210938 77.621094 " fill-opacity="1" fill-rule="nonzero"/><path fill="#fb6ba2" d="M 1383.058594 77.621094 L 1370.832031 77.621094 L 1370.832031 81.671875 L 1383.058594 81.671875 Z M 1383.058594 77.621094 " fill-opacity="1" fill-rule="nonzero"/><path fill="#fb6ba2" d="M 1293.402344 73.574219 L 1264.875 73.574219 L 1264.875 77.621094 L 1293.402344 77.621094 Z M 1293.402344 73.574219 " fill-opacity="1" fill-rule="nonzero"/><path fill="#fb6ba2" d="M 1297.476562 69.523438 L 1293.402344 69.523438 L 1293.402344 73.574219 L 1297.476562 73.574219 Z M 1297.476562 69.523438 " fill-opacity="1" fill-rule="nonzero"/><path fill="#fb6ba2" d="M 1436.039062 49.273438 L 1431.964844 49.273438 L 1431.964844 53.324219 L 1436.039062 53.324219 Z M 1436.039062 49.273438 " fill-opacity="1" fill-rule="nonzero"/><path fill="#fb6ba2" d="M 1431.964844 45.222656 L 1423.8125 45.222656 L 1423.8125 49.273438 L 1431.964844 49.273438 Z M 1431.964844 45.222656 " fill-opacity="1" fill-rule="nonzero"/><path fill="#fb6ba2" d="M 1431.964844 57.371094 L 1427.886719 57.371094 L 1427.886719 65.472656 L 1431.964844 65.472656 Z M 1431.964844 57.371094 " fill-opacity="1" fill-rule="nonzero"/><path fill="#fb6ba2" d="M 1423.8125 61.421875 L 1415.664062 61.421875 L 1415.664062 65.472656 L 1423.8125 65.472656 Z M 1423.8125 61.421875 " fill-opacity="1" fill-rule="nonzero"/><path fill="#fb6ba2" d="M 1330.082031 61.421875 L 1321.929688 61.421875 L 1321.929688 65.472656 L 1330.082031 65.472656 Z M 1330.082031 61.421875 " fill-opacity="1" fill-rule="nonzero"/><path fill="#fb6ba2" d="M 1334.15625 73.574219 L 1326.003906 73.574219 L 1326.003906 77.621094 L 1334.15625 77.621094 Z M 1334.15625 73.574219 " fill-opacity="1" fill-rule="nonzero"/><path fill="#ffe14d" d="M 1334.15625 57.371094 L 1321.929688 57.371094 L 1321.929688 61.421875 L 1334.15625 61.421875 Z M 1334.15625 57.371094 " fill-opacity="1" fill-rule="nonzero"/><path fill="#ffe14d" d="M 1317.855469 61.421875 L 1313.777344 61.421875 L 1313.777344 65.472656 L 1317.855469 65.472656 Z M 1317.855469 61.421875 " fill-opacity="1" fill-rule="nonzero"/><path fill="#ffe14d" d="M 1289.328125 61.421875 L 1285.25 61.421875 L 1285.25 65.472656 L 1289.328125 65.472656 Z M 1289.328125 61.421875 " fill-opacity="1" fill-rule="nonzero"/><path fill="#ffe14d" d="M 1281.175781 65.472656 L 1273.027344 65.472656 L 1273.027344 69.523438 L 1281.175781 69.523438 Z M 1281.175781 65.472656 " fill-opacity="1" fill-rule="nonzero"/><path fill="#ffe14d" d="M 1391.210938 65.472656 L 1383.058594 65.472656 L 1383.058594 69.523438 L 1391.210938 69.523438 Z M 1391.210938 65.472656 " fill-opacity="1" fill-rule="nonzero"/><path fill="#ffe14d" d="M 1378.984375 69.523438 L 1374.910156 69.523438 L 1374.910156 73.574219 L 1378.984375 73.574219 Z M 1378.984375 69.523438 " fill-opacity="1" fill-rule="nonzero"/><path fill="#ffe14d" d="M 1419.738281 49.273438 L 1415.664062 49.273438 L 1415.664062 53.324219 L 1419.738281 53.324219 Z M 1419.738281 49.273438 " fill-opacity="1" fill-rule="nonzero"/><path fill="#ffe14d" d="M 1415.664062 53.324219 L 1411.585938 53.324219 L 1411.585938 57.371094 L 1415.664062 57.371094 Z M 1415.664062 53.324219 " fill-opacity="1" fill-rule="nonzero"/><path fill="#ffe14d" d="M 1411.585938 57.371094 L 1407.511719 57.371094 L 1407.511719 61.421875 L 1411.585938 61.421875 Z M 1411.585938 57.371094 " fill-opacity="1" fill-rule="nonzero"/></svg>