<?xml version="1.0" encoding="utf-8"?>
<svg xmlns="http://www.w3.org/2000/svg" width="1920" zoomAndPan="magnify" viewBox="0 0 1440 809.999993" height="1080" preserveAspectRatio="none" version="1.0" xmlns:bx="https://boxy-svg.com"><defs><bx:export><bx:file format="svg" path="nuage2.svg"/></bx:export></defs><path fill="#ff999a" d="M 59.960938 148.800781 L 59.960938 145.871094 L 62.914062 145.871094 L 62.914062 142.9375 L 68.816406 142.9375 L 68.816406 140.007812 L 83.570312 140.007812 L 83.570312 142.9375 L 89.472656 142.9375 L 89.472656 137.074219 L 92.421875 137.074219 L 92.421875 134.140625 L 95.375 134.140625 L 95.375 131.210938 L 98.324219 131.210938 L 98.324219 128.277344 L 113.082031 128.277344 L 113.082031 122.414062 L 116.03125 122.414062 L 116.03125 116.550781 L 118.984375 116.550781 L 118.984375 113.621094 L 121.933594 113.621094 L 121.933594 110.6875 L 124.886719 110.6875 L 124.886719 107.757812 L 136.691406 107.757812 L 136.691406 104.824219 L 139.640625 104.824219 L 139.640625 101.890625 L 142.59375 101.890625 L 142.59375 98.960938 L 154.398438 98.960938 L 154.398438 101.890625 L 160.300781 101.890625 L 160.300781 104.824219 L 175.054688 104.824219 L 175.054688 107.757812 L 178.007812 107.757812 L 178.007812 110.6875 L 180.957031 110.6875 L 180.957031 113.621094 L 183.910156 113.621094 L 183.910156 125.347656 L 186.859375 125.347656 L 186.859375 128.277344 L 189.8125 128.277344 L 189.8125 134.140625 L 192.761719 134.140625 L 192.761719 131.210938 L 201.617188 131.210938 L 201.617188 134.140625 L 204.566406 134.140625 L 204.566406 137.074219 L 207.515625 137.074219 L 207.515625 140.007812 L 210.46875 140.007812 L 210.46875 145.871094 L 216.371094 145.871094 L 216.371094 148.800781 L 222.273438 148.800781 L 222.273438 151.734375 L 225.222656 151.734375 L 225.222656 148.800781 L 234.078125 148.800781 L 234.078125 151.734375 L 239.980469 151.734375 L 239.980469 154.664062 L 242.929688 154.664062 L 242.929688 160.527344 L 239.980469 160.527344 L 239.980469 163.460938 L 62.914062 163.460938 L 62.914062 160.527344 L 59.960938 160.527344 L 59.960938 154.664062 L 57.011719 154.664062 L 57.011719 148.800781 Z M 59.960938 148.800781 " fill-opacity="1" fill-rule="nonzero"/><path fill="#5561d3" d="M 160.300781 113.621094 L 160.300781 104.824219 L 163.25 104.824219 L 163.25 110.6875 L 166.203125 110.6875 L 166.203125 119.484375 L 163.25 119.484375 L 163.25 113.621094 Z M 160.300781 113.621094 " fill-opacity="1" fill-rule="nonzero"/><path fill="#5561d3" d="M 160.300781 101.890625 L 154.398438 101.890625 L 154.398438 104.824219 L 160.300781 104.824219 Z M 160.300781 101.890625 " fill-opacity="1" fill-rule="nonzero"/><path fill="#5561d3" d="M 163.25 119.484375 L 160.300781 119.484375 L 160.300781 125.347656 L 163.25 125.347656 Z M 163.25 119.484375 " fill-opacity="1" fill-rule="nonzero"/><path fill="#5561d3" d="M 151.445312 131.210938 L 151.445312 128.277344 L 154.398438 128.277344 L 154.398438 125.347656 L 160.300781 125.347656 L 160.300781 128.277344 L 157.347656 128.277344 L 157.347656 131.210938 L 154.398438 131.210938 L 154.398438 134.140625 L 148.496094 134.140625 L 148.496094 131.210938 Z M 151.445312 131.210938 " fill-opacity="1" fill-rule="nonzero"/><path fill="#5561d3" d="M 139.640625 107.757812 L 133.738281 107.757812 L 133.738281 110.6875 L 139.640625 110.6875 Z M 139.640625 107.757812 " fill-opacity="1" fill-rule="nonzero"/><path fill="#5561d3" d="M 142.59375 110.6875 L 139.640625 110.6875 L 139.640625 113.621094 L 142.59375 113.621094 Z M 142.59375 110.6875 " fill-opacity="1" fill-rule="nonzero"/><path fill="#5561d3" d="M 145.542969 113.621094 L 142.59375 113.621094 L 142.59375 122.414062 L 145.542969 122.414062 Z M 145.542969 113.621094 " fill-opacity="1" fill-rule="nonzero"/><path fill="#5561d3" d="M 142.59375 122.414062 L 139.640625 122.414062 L 139.640625 128.277344 L 142.59375 128.277344 Z M 142.59375 122.414062 " fill-opacity="1" fill-rule="nonzero"/><path fill="#5561d3" d="M 139.640625 128.277344 L 136.691406 128.277344 L 136.691406 131.210938 L 139.640625 131.210938 Z M 139.640625 128.277344 " fill-opacity="1" fill-rule="nonzero"/><path fill="#5561d3" d="M 136.691406 131.210938 L 130.789062 131.210938 L 130.789062 134.140625 L 136.691406 134.140625 Z M 136.691406 131.210938 " fill-opacity="1" fill-rule="nonzero"/><path fill="#5561d3" d="M 130.789062 134.140625 L 124.886719 134.140625 L 124.886719 137.074219 L 130.789062 137.074219 Z M 130.789062 134.140625 " fill-opacity="1" fill-rule="nonzero"/><path fill="#5561d3" d="M 124.886719 131.210938 L 118.984375 131.210938 L 118.984375 134.140625 L 124.886719 134.140625 Z M 124.886719 131.210938 " fill-opacity="1" fill-rule="nonzero"/><path fill="#5561d3" d="M 65.863281 154.664062 L 65.863281 157.597656 L 71.765625 157.597656 L 71.765625 154.664062 L 77.667969 154.664062 L 77.667969 151.734375 L 83.570312 151.734375 L 83.570312 148.800781 L 86.523438 148.800781 L 86.523438 142.9375 L 92.421875 142.9375 L 92.421875 145.871094 L 104.226562 145.871094 L 104.226562 148.800781 L 118.984375 148.800781 L 118.984375 145.871094 L 127.835938 145.871094 L 127.835938 142.9375 L 136.691406 142.9375 L 136.691406 140.007812 L 139.640625 140.007812 L 139.640625 137.074219 L 136.691406 137.074219 L 136.691406 134.140625 L 148.496094 134.140625 L 148.496094 137.074219 L 145.542969 137.074219 L 145.542969 140.007812 L 142.59375 140.007812 L 142.59375 142.9375 L 148.496094 142.9375 L 148.496094 145.871094 L 169.152344 145.871094 L 169.152344 142.9375 L 175.054688 142.9375 L 175.054688 140.007812 L 180.957031 140.007812 L 180.957031 137.074219 L 186.859375 137.074219 L 186.859375 131.210938 L 183.910156 131.210938 L 183.910156 125.347656 L 186.859375 125.347656 L 186.859375 128.277344 L 189.8125 128.277344 L 189.8125 140.007812 L 186.859375 140.007812 L 186.859375 142.9375 L 183.910156 142.9375 L 183.910156 145.871094 L 189.8125 145.871094 L 189.8125 148.800781 L 192.761719 148.800781 L 192.761719 154.664062 L 198.664062 154.664062 L 198.664062 151.734375 L 201.617188 151.734375 L 201.617188 148.800781 L 204.566406 148.800781 L 204.566406 145.871094 L 207.515625 145.871094 L 207.515625 140.007812 L 210.46875 140.007812 L 210.46875 145.871094 L 213.417969 145.871094 L 213.417969 151.734375 L 216.371094 151.734375 L 216.371094 154.664062 L 219.320312 154.664062 L 219.320312 157.597656 L 237.027344 157.597656 L 237.027344 151.734375 L 239.980469 151.734375 L 239.980469 154.664062 L 242.929688 154.664062 L 242.929688 160.527344 L 239.980469 160.527344 L 239.980469 163.460938 L 62.914062 163.460938 L 62.914062 160.527344 L 59.960938 160.527344 L 59.960938 154.664062 Z M 65.863281 154.664062 " fill-opacity="1" fill-rule="nonzero"/><path fill="#8e68e6" d="M 234.078125 151.734375 L 237.027344 151.734375 L 237.027344 157.597656 L 219.320312 157.597656 L 219.320312 154.664062 L 234.078125 154.664062 Z M 234.078125 151.734375 " fill-opacity="1" fill-rule="nonzero"/><path fill="#8e68e6" d="M 216.371094 145.871094 L 213.417969 145.871094 L 213.417969 151.734375 L 216.371094 151.734375 Z M 216.371094 145.871094 " fill-opacity="1" fill-rule="nonzero"/><path fill="#8e68e6" d="M 204.566406 142.9375 L 204.566406 137.074219 L 207.515625 137.074219 L 207.515625 145.871094 L 204.566406 145.871094 L 204.566406 148.800781 L 201.617188 148.800781 L 201.617188 142.9375 Z M 204.566406 142.9375 " fill-opacity="1" fill-rule="nonzero"/><path fill="#8e68e6" d="M 201.617188 148.800781 L 201.617188 151.734375 L 198.664062 151.734375 L 198.664062 154.664062 L 192.761719 154.664062 L 192.761719 148.800781 Z M 201.617188 148.800781 " fill-opacity="1" fill-rule="nonzero"/><path fill="#8e68e6" d="M 178.007812 137.074219 L 178.007812 134.140625 L 180.957031 134.140625 L 180.957031 122.414062 L 183.910156 122.414062 L 183.910156 131.210938 L 186.859375 131.210938 L 186.859375 137.074219 L 180.957031 137.074219 L 180.957031 140.007812 L 175.054688 140.007812 L 175.054688 137.074219 Z M 178.007812 137.074219 " fill-opacity="1" fill-rule="nonzero"/><path fill="#8e68e6" d="M 169.152344 140.007812 L 175.054688 140.007812 L 175.054688 145.871094 L 169.152344 145.871094 L 169.152344 148.800781 L 148.496094 148.800781 L 148.496094 142.9375 L 169.152344 142.9375 Z M 169.152344 140.007812 " fill-opacity="1" fill-rule="nonzero"/><path fill="#8e68e6" d="M 148.496094 140.007812 L 142.59375 140.007812 L 142.59375 142.9375 L 148.496094 142.9375 Z M 148.496094 140.007812 " fill-opacity="1" fill-rule="nonzero"/><path fill="#8e68e6" d="M 157.347656 151.734375 L 154.398438 151.734375 L 154.398438 154.664062 L 157.347656 154.664062 Z M 157.347656 151.734375 " fill-opacity="1" fill-rule="nonzero"/><path fill="#8e68e6" d="M 145.542969 145.871094 L 139.640625 145.871094 L 139.640625 151.734375 L 145.542969 151.734375 Z M 145.542969 145.871094 " fill-opacity="1" fill-rule="nonzero"/><path fill="#8e68e6" d="M 186.859375 148.800781 L 180.957031 148.800781 L 180.957031 154.664062 L 186.859375 154.664062 Z M 186.859375 148.800781 " fill-opacity="1" fill-rule="nonzero"/><path fill="#8e68e6" d="M 210.46875 148.800781 L 207.515625 148.800781 L 207.515625 151.734375 L 210.46875 151.734375 Z M 210.46875 148.800781 " fill-opacity="1" fill-rule="nonzero"/><path fill="#8e68e6" d="M 216.371094 154.664062 L 213.417969 154.664062 L 213.417969 157.597656 L 216.371094 157.597656 Z M 216.371094 154.664062 " fill-opacity="1" fill-rule="nonzero"/><path fill="#8e68e6" d="M 210.46875 154.664062 L 204.566406 154.664062 L 204.566406 160.527344 L 210.46875 160.527344 Z M 210.46875 154.664062 " fill-opacity="1" fill-rule="nonzero"/><path fill="#8e68e6" d="M 172.105469 148.800781 L 175.054688 148.800781 L 175.054688 154.664062 L 160.300781 154.664062 L 160.300781 151.734375 L 172.105469 151.734375 Z M 172.105469 148.800781 " fill-opacity="1" fill-rule="nonzero"/><path fill="#8e68e6" d="M 127.835938 148.800781 L 121.933594 148.800781 L 121.933594 151.734375 L 127.835938 151.734375 Z M 127.835938 148.800781 " fill-opacity="1" fill-rule="nonzero"/><path fill="#8e68e6" d="M 133.738281 140.007812 L 133.738281 134.140625 L 136.691406 134.140625 L 136.691406 137.074219 L 139.640625 137.074219 L 139.640625 140.007812 L 136.691406 140.007812 L 136.691406 142.9375 L 127.835938 142.9375 L 127.835938 140.007812 Z M 133.738281 140.007812 " fill-opacity="1" fill-rule="nonzero"/><path fill="#8e68e6" d="M 163.25 113.621094 L 160.300781 113.621094 L 160.300781 119.484375 L 163.25 119.484375 Z M 163.25 113.621094 " fill-opacity="1" fill-rule="nonzero"/><path fill="#8e68e6" d="M 157.347656 122.414062 L 157.347656 119.484375 L 160.300781 119.484375 L 160.300781 125.347656 L 154.398438 125.347656 L 154.398438 122.414062 Z M 157.347656 122.414062 " fill-opacity="1" fill-rule="nonzero"/><path fill="#8e68e6" d="M 154.398438 125.347656 L 151.445312 125.347656 L 151.445312 128.277344 L 154.398438 128.277344 Z M 154.398438 125.347656 " fill-opacity="1" fill-rule="nonzero"/><path fill="#8e68e6" d="M 139.640625 131.210938 L 139.640625 128.277344 L 151.445312 128.277344 L 151.445312 131.210938 L 148.496094 131.210938 L 148.496094 134.140625 L 136.691406 134.140625 L 136.691406 131.210938 Z M 139.640625 131.210938 " fill-opacity="1" fill-rule="nonzero"/><path fill="#8e68e6" d="M 92.421875 142.9375 L 89.472656 142.9375 L 89.472656 137.074219 L 92.421875 137.074219 L 92.421875 140.007812 L 104.226562 140.007812 L 104.226562 142.9375 L 127.835938 142.9375 L 127.835938 145.871094 L 118.984375 145.871094 L 118.984375 148.800781 L 104.226562 148.800781 L 104.226562 145.871094 L 92.421875 145.871094 Z M 92.421875 142.9375 " fill-opacity="1" fill-rule="nonzero"/><path fill="#8e68e6" d="M 83.570312 145.871094 L 83.570312 142.9375 L 86.523438 142.9375 L 86.523438 148.800781 L 83.570312 148.800781 L 83.570312 151.734375 L 77.667969 151.734375 L 77.667969 145.871094 Z M 83.570312 145.871094 " fill-opacity="1" fill-rule="nonzero"/><path fill="#8e68e6" d="M 77.667969 151.734375 L 71.765625 151.734375 L 71.765625 154.664062 L 77.667969 154.664062 Z M 77.667969 151.734375 " fill-opacity="1" fill-rule="nonzero"/><path fill="#8e68e6" d="M 71.765625 154.664062 L 65.863281 154.664062 L 65.863281 157.597656 L 71.765625 157.597656 Z M 71.765625 154.664062 " fill-opacity="1" fill-rule="nonzero"/><path fill="#8e68e6" d="M 65.863281 151.734375 L 57.011719 151.734375 L 57.011719 154.664062 L 65.863281 154.664062 Z M 65.863281 151.734375 " fill-opacity="1" fill-rule="nonzero"/><path fill="#8e68e6" d="M 86.523438 151.734375 L 92.421875 151.734375 L 92.421875 154.664062 L 89.472656 154.664062 L 89.472656 157.597656 L 80.621094 157.597656 L 80.621094 154.664062 L 86.523438 154.664062 Z M 86.523438 151.734375 " fill-opacity="1" fill-rule="nonzero"/><path fill="#8e68e6" d="M 101.277344 148.800781 L 92.421875 148.800781 L 92.421875 151.734375 L 101.277344 151.734375 Z M 101.277344 148.800781 " fill-opacity="1" fill-rule="nonzero"/><path fill="#fb6ba2" d="M 172.105469 137.074219 L 172.105469 131.210938 L 175.054688 131.210938 L 175.054688 119.484375 L 180.957031 119.484375 L 180.957031 116.550781 L 178.007812 116.550781 L 178.007812 110.6875 L 180.957031 110.6875 L 180.957031 113.621094 L 183.910156 113.621094 L 183.910156 122.414062 L 180.957031 122.414062 L 180.957031 134.140625 L 178.007812 134.140625 L 178.007812 137.074219 L 175.054688 137.074219 L 175.054688 140.007812 L 169.152344 140.007812 L 169.152344 137.074219 Z M 172.105469 137.074219 " fill-opacity="1" fill-rule="nonzero"/><path fill="#fb6ba2" d="M 169.152344 140.007812 L 148.496094 140.007812 L 148.496094 142.9375 L 169.152344 142.9375 Z M 169.152344 140.007812 " fill-opacity="1" fill-rule="nonzero"/><path fill="#fb6ba2" d="M 172.105469 116.550781 L 172.105469 113.621094 L 175.054688 113.621094 L 175.054688 119.484375 L 172.105469 119.484375 Z M 172.105469 116.550781 " fill-opacity="1" fill-rule="nonzero"/><path fill="#fb6ba2" d="M 172.105469 110.6875 L 169.152344 110.6875 L 169.152344 113.621094 L 172.105469 113.621094 Z M 172.105469 110.6875 " fill-opacity="1" fill-rule="nonzero"/><path fill="#fb6ba2" d="M 148.496094 137.074219 L 145.542969 137.074219 L 145.542969 140.007812 L 148.496094 140.007812 Z M 148.496094 137.074219 " fill-opacity="1" fill-rule="nonzero"/><path fill="#fb6ba2" d="M 198.664062 142.9375 L 201.617188 142.9375 L 201.617188 148.800781 L 189.8125 148.800781 L 189.8125 145.871094 L 198.664062 145.871094 Z M 198.664062 142.9375 " fill-opacity="1" fill-rule="nonzero"/><path fill="#fb6ba2" d="M 231.125 148.800781 L 234.078125 148.800781 L 234.078125 154.664062 L 225.222656 154.664062 L 225.222656 151.734375 L 231.125 151.734375 Z M 231.125 148.800781 " fill-opacity="1" fill-rule="nonzero"/><path fill="#fb6ba2" d="M 222.273438 151.734375 L 216.371094 151.734375 L 216.371094 154.664062 L 222.273438 154.664062 Z M 222.273438 151.734375 " fill-opacity="1" fill-rule="nonzero"/><path fill="#fb6ba2" d="M 151.445312 101.890625 L 148.496094 101.890625 L 148.496094 98.960938 L 154.398438 98.960938 L 154.398438 104.824219 L 151.445312 104.824219 Z M 151.445312 101.890625 " fill-opacity="1" fill-rule="nonzero"/><path fill="#fb6ba2" d="M 157.347656 116.550781 L 157.347656 107.757812 L 154.398438 107.757812 L 154.398438 104.824219 L 160.300781 104.824219 L 160.300781 119.484375 L 157.347656 119.484375 L 157.347656 122.414062 L 154.398438 122.414062 L 154.398438 116.550781 Z M 157.347656 116.550781 " fill-opacity="1" fill-rule="nonzero"/><path fill="#fb6ba2" d="M 154.398438 122.414062 L 151.445312 122.414062 L 151.445312 125.347656 L 154.398438 125.347656 Z M 154.398438 122.414062 " fill-opacity="1" fill-rule="nonzero"/><path fill="#fb6ba2" d="M 151.445312 125.347656 L 142.59375 125.347656 L 142.59375 128.277344 L 151.445312 128.277344 Z M 151.445312 125.347656 " fill-opacity="1" fill-rule="nonzero"/><path fill="#fb6ba2" d="M 154.398438 110.6875 L 151.445312 110.6875 L 151.445312 113.621094 L 154.398438 113.621094 Z M 154.398438 110.6875 " fill-opacity="1" fill-rule="nonzero"/><path fill="#fb6ba2" d="M 198.664062 137.074219 L 198.664062 134.140625 L 195.714844 134.140625 L 195.714844 131.210938 L 201.617188 131.210938 L 201.617188 134.140625 L 204.566406 134.140625 L 204.566406 142.9375 L 201.617188 142.9375 L 201.617188 137.074219 Z M 198.664062 137.074219 " fill-opacity="1" fill-rule="nonzero"/><path fill="#fb6ba2" d="M 186.859375 140.007812 L 189.8125 140.007812 L 189.8125 145.871094 L 183.910156 145.871094 L 183.910156 142.9375 L 186.859375 142.9375 Z M 186.859375 140.007812 " fill-opacity="1" fill-rule="nonzero"/><path fill="#fb6ba2" d="M 192.761719 134.140625 L 189.8125 134.140625 L 189.8125 140.007812 L 192.761719 140.007812 Z M 192.761719 134.140625 " fill-opacity="1" fill-rule="nonzero"/><path fill="#fb6ba2" d="M 142.59375 113.621094 L 139.640625 113.621094 L 139.640625 122.414062 L 142.59375 122.414062 Z M 142.59375 113.621094 " fill-opacity="1" fill-rule="nonzero"/><path fill="#fb6ba2" d="M 139.640625 122.414062 L 136.691406 122.414062 L 136.691406 128.277344 L 139.640625 128.277344 Z M 139.640625 122.414062 " fill-opacity="1" fill-rule="nonzero"/><path fill="#fb6ba2" d="M 136.691406 128.277344 L 130.789062 128.277344 L 130.789062 131.210938 L 136.691406 131.210938 Z M 136.691406 128.277344 " fill-opacity="1" fill-rule="nonzero"/><path fill="#fb6ba2" d="M 130.789062 131.210938 L 124.886719 131.210938 L 124.886719 134.140625 L 130.789062 134.140625 Z M 130.789062 131.210938 " fill-opacity="1" fill-rule="nonzero"/><path fill="#fb6ba2" d="M 98.324219 137.074219 L 110.128906 137.074219 L 110.128906 140.007812 L 124.886719 140.007812 L 124.886719 137.074219 L 130.789062 137.074219 L 130.789062 134.140625 L 133.738281 134.140625 L 133.738281 140.007812 L 127.835938 140.007812 L 127.835938 142.9375 L 104.226562 142.9375 L 104.226562 140.007812 L 92.421875 140.007812 L 92.421875 134.140625 L 98.324219 134.140625 Z M 98.324219 137.074219 " fill-opacity="1" fill-rule="nonzero"/><path fill="#fb6ba2" d="M 124.886719 128.277344 L 118.984375 128.277344 L 118.984375 131.210938 L 124.886719 131.210938 Z M 124.886719 128.277344 " fill-opacity="1" fill-rule="nonzero"/><path fill="#fb6ba2" d="M 118.984375 125.347656 L 116.03125 125.347656 L 116.03125 128.277344 L 118.984375 128.277344 Z M 118.984375 125.347656 " fill-opacity="1" fill-rule="nonzero"/><path fill="#fb6ba2" d="M 80.621094 142.9375 L 80.621094 140.007812 L 83.570312 140.007812 L 83.570312 145.871094 L 77.667969 145.871094 L 77.667969 142.9375 Z M 80.621094 142.9375 " fill-opacity="1" fill-rule="nonzero"/><path fill="#fb6ba2" d="M 74.71875 148.800781 L 74.71875 145.871094 L 77.667969 145.871094 L 77.667969 151.734375 L 71.765625 151.734375 L 71.765625 148.800781 Z M 74.71875 148.800781 " fill-opacity="1" fill-rule="nonzero"/><path fill="#fb6ba2" d="M 71.765625 151.734375 L 65.863281 151.734375 L 65.863281 154.664062 L 71.765625 154.664062 Z M 71.765625 151.734375 " fill-opacity="1" fill-rule="nonzero"/><path fill="#fb6ba2" d="M 59.960938 148.800781 L 59.960938 145.871094 L 62.914062 145.871094 L 62.914062 148.800781 L 65.863281 148.800781 L 65.863281 151.734375 L 57.011719 151.734375 L 57.011719 148.800781 Z M 59.960938 148.800781 " fill-opacity="1" fill-rule="nonzero"/><path fill="#fb6ba2" d="M 160.300781 128.277344 L 157.347656 128.277344 L 157.347656 131.210938 L 160.300781 131.210938 Z M 160.300781 128.277344 " fill-opacity="1" fill-rule="nonzero"/><path fill="#fb6ba2" d="M 157.347656 131.210938 L 154.398438 131.210938 L 154.398438 134.140625 L 157.347656 134.140625 Z M 157.347656 131.210938 " fill-opacity="1" fill-rule="nonzero"/><path fill="#fb6ba2" d="M 154.398438 134.140625 L 148.496094 134.140625 L 148.496094 137.074219 L 154.398438 137.074219 Z M 154.398438 134.140625 " fill-opacity="1" fill-rule="nonzero"/><path fill="#ffe14d" d="M 148.496094 104.824219 L 142.59375 104.824219 L 142.59375 107.757812 L 148.496094 107.757812 Z M 148.496094 104.824219 " fill-opacity="1" fill-rule="nonzero"/><path fill="#ffe14d" d="M 142.59375 101.890625 L 139.640625 101.890625 L 139.640625 104.824219 L 142.59375 104.824219 Z M 142.59375 101.890625 " fill-opacity="1" fill-rule="nonzero"/><path fill="#ffe14d" d="M 139.640625 104.824219 L 136.691406 104.824219 L 136.691406 107.757812 L 139.640625 107.757812 Z M 139.640625 104.824219 " fill-opacity="1" fill-rule="nonzero"/><path fill="#ffe14d" d="M 130.789062 107.757812 L 124.886719 107.757812 L 124.886719 110.6875 L 130.789062 110.6875 Z M 130.789062 107.757812 " fill-opacity="1" fill-rule="nonzero"/><path fill="#ffe14d" d="M 133.738281 113.621094 L 127.835938 113.621094 L 127.835938 116.550781 L 133.738281 116.550781 Z M 133.738281 113.621094 " fill-opacity="1" fill-rule="nonzero"/><path fill="#ffe14d" d="M 127.835938 119.484375 L 124.886719 119.484375 L 124.886719 122.414062 L 127.835938 122.414062 Z M 127.835938 119.484375 " fill-opacity="1" fill-rule="nonzero"/><path fill="#ffe14d" d="M 172.105469 104.824219 L 163.25 104.824219 L 163.25 107.757812 L 172.105469 107.757812 Z M 172.105469 104.824219 " fill-opacity="1" fill-rule="nonzero"/><path fill="#ffe14d" d="M 148.496094 98.960938 L 142.59375 98.960938 L 142.59375 101.890625 L 148.496094 101.890625 Z M 148.496094 98.960938 " fill-opacity="1" fill-rule="nonzero"/><path fill="#ffe14d" d="M 124.886719 110.6875 L 121.933594 110.6875 L 121.933594 113.621094 L 124.886719 113.621094 Z M 124.886719 110.6875 " fill-opacity="1" fill-rule="nonzero"/><path fill="#ffe14d" d="M 118.984375 116.550781 L 116.03125 116.550781 L 116.03125 119.484375 L 118.984375 119.484375 Z M 118.984375 116.550781 " fill-opacity="1" fill-rule="nonzero"/><path fill="#ffe14d" d="M 74.71875 140.007812 L 68.816406 140.007812 L 68.816406 142.9375 L 74.71875 142.9375 Z M 74.71875 140.007812 " fill-opacity="1" fill-rule="nonzero"/><path fill="#ffe14d" d="M 68.816406 142.9375 L 62.914062 142.9375 L 62.914062 145.871094 L 68.816406 145.871094 Z M 68.816406 142.9375 " fill-opacity="1" fill-rule="nonzero"/><path fill="#ffe14d" d="M 116.03125 122.414062 L 113.082031 122.414062 L 113.082031 128.277344 L 116.03125 128.277344 Z M 116.03125 122.414062 " fill-opacity="1" fill-rule="nonzero"/><path fill="#ffe14d" d="M 113.082031 128.277344 L 104.226562 128.277344 L 104.226562 131.210938 L 113.082031 131.210938 Z M 113.082031 128.277344 " fill-opacity="1" fill-rule="nonzero"/><path fill="#ffe14d" d="M 101.277344 131.210938 L 98.324219 131.210938 L 98.324219 134.140625 L 101.277344 134.140625 Z M 101.277344 131.210938 " fill-opacity="1" fill-rule="nonzero"/><path fill="#ffe14d" d="M 116.03125 131.210938 L 113.082031 131.210938 L 113.082031 134.140625 L 116.03125 134.140625 Z M 116.03125 131.210938 " fill-opacity="1" fill-rule="nonzero"/><path fill="#ffe14d" d="M 136.691406 116.550781 L 133.738281 116.550781 L 133.738281 119.484375 L 136.691406 119.484375 Z M 136.691406 116.550781 " fill-opacity="1" fill-rule="nonzero"/></svg>