<?xml version="1.0" encoding="utf-8"?>
<svg xmlns="http://www.w3.org/2000/svg" width="1920" zoomAndPan="magnify" viewBox="0 0 1440 809.999993" height="1080" preserveAspectRatio="none" version="1.0" xmlns:bx="https://boxy-svg.com"><defs><bx:export><bx:file format="png" path="Sans titre.png" excluded="true"/><bx:file format="svg" path="soleilE.svg"/></bx:export></defs><path fill="#ff7f07" d="M 144.542969 65.679688 L -41.042969 65.679688 L -41.042969 76.597656 L 155.457031 76.597656 L 155.457031 65.679688 Z M 144.542969 65.679688 " fill-opacity="1" fill-rule="nonzero"/><path fill="#ff7f07" d="M 144.542969 82.054688 L -41.042969 82.054688 L -41.042969 92.972656 L 155.457031 92.972656 L 155.457031 82.054688 Z M 144.542969 82.054688 " fill-opacity="1" fill-rule="nonzero"/><path fill="#ff7f07" d="M 128.167969 120.265625 L -24.667969 120.265625 L -24.667969 125.722656 L -19.207031 125.722656 L -19.207031 131.179688 L 133.625 131.179688 L 133.625 125.722656 L 139.082031 125.722656 L 139.082031 120.265625 Z M 128.167969 120.265625 " fill-opacity="1" fill-rule="nonzero"/><path fill="#ff7f07" d="M 106.332031 142.097656 L -2.832031 142.097656 L -2.832031 147.554688 L 2.625 147.554688 L 2.625 153.015625 L 111.792969 153.015625 L 111.792969 147.554688 L 117.25 147.554688 L 117.25 142.097656 Z M 106.332031 142.097656 " fill-opacity="1" fill-rule="nonzero"/><path fill="#ff7f07" d="M 29.917969 158.472656 L 84.5 158.472656 L 84.5 163.929688 L 29.917969 163.929688 Z M 29.917969 158.472656 " fill-opacity="1" fill-rule="nonzero"/><path fill="#ff7f07" d="M 150 38.390625 L 150 22.015625 L 144.542969 22.015625 L 144.542969 11.097656 L 139.082031 11.097656 L 139.082031 5.640625 L 133.625 5.640625 L 133.625 0.179688 L 128.167969 0.179688 L 128.167969 -5.277344 L 122.707031 -5.277344 L 122.707031 -10.734375 L 117.25 -10.734375 L 117.25 -16.195312 L 111.792969 -16.195312 L 111.792969 -21.652344 L 100.875 -21.652344 L 100.875 -27.109375 L 84.5 -27.109375 L 84.5 -32.570312 L 29.917969 -32.570312 L 29.917969 -27.109375 L 13.542969 -27.109375 L 13.542969 -21.652344 L 2.625 -21.652344 L 2.625 -16.195312 L -2.832031 -16.195312 L -2.832031 -10.734375 L -8.292969 -10.734375 L -8.292969 -5.277344 L -13.75 -5.277344 L -13.75 0.179688 L -19.207031 0.179688 L -19.207031 5.640625 L -24.667969 5.640625 L -24.667969 11.097656 L -30.125 11.097656 L -30.125 22.015625 L -35.582031 22.015625 L -35.582031 38.390625 L -41.042969 38.390625 L -41.042969 60.222656 L 155.457031 60.222656 L 155.457031 38.390625 Z M 150 38.390625 " fill-opacity="1" fill-rule="nonzero"/><path fill="#ff7f07" d="M 139.082031 98.429688 L -35.582031 98.429688 L -35.582031 103.890625 L -30.125 103.890625 L -30.125 109.347656 L 144.542969 109.347656 L 144.542969 103.890625 L 150 103.890625 L 150 98.429688 Z M 139.082031 98.429688 " fill-opacity="1" fill-rule="nonzero"/><path fill="#ffd100" d="M 150 38.390625 L 150 22.015625 L 144.542969 22.015625 L 144.542969 11.097656 L 139.082031 11.097656 L 139.082031 5.640625 L 133.625 5.640625 L 133.625 0.179688 L 128.167969 0.179688 L 128.167969 -5.277344 L 122.707031 -5.277344 L 122.707031 -10.734375 L 117.25 -10.734375 L 117.25 -16.195312 L 111.792969 -16.195312 L 111.792969 -21.652344 L 100.875 -21.652344 L 100.875 -27.109375 L 84.5 -27.109375 L 84.5 -32.570312 L 29.917969 -32.570312 L 29.917969 -27.109375 L 13.542969 -27.109375 L 13.542969 -21.652344 L 2.625 -21.652344 L 2.625 -16.195312 L -2.832031 -16.195312 L -2.832031 -10.734375 L -8.292969 -10.734375 L -8.292969 -5.277344 L -13.75 -5.277344 L -13.75 0.179688 L -19.207031 0.179688 L -19.207031 5.640625 L -24.667969 5.640625 L -24.667969 11.097656 L -30.125 11.097656 L -30.125 22.015625 L -35.582031 22.015625 L -35.582031 38.390625 L -41.042969 38.390625 L -41.042969 60.222656 L 155.457031 60.222656 L 155.457031 38.390625 Z M 150 38.390625 " fill-opacity="1" fill-rule="nonzero"/><path fill="#ff0070" d="M 150 98.429688 L 150 103.890625 L 144.542969 103.890625 L 144.542969 98.429688 Z M 150 98.429688 " fill-opacity="1" fill-rule="nonzero"/><path fill="#ff0070" d="M 139.082031 125.722656 L 133.625 125.722656 L 133.625 120.265625 L 139.082031 120.265625 Z M 139.082031 125.722656 " fill-opacity="1" fill-rule="nonzero"/><path fill="#ff0070" d="M 133.625 131.179688 L 128.167969 131.179688 L 128.167969 125.722656 L 133.625 125.722656 Z M 133.625 131.179688 " fill-opacity="1" fill-rule="nonzero"/><path fill="#ff7f07" d="M -41.042969 65.679688 L 155.457031 65.679688 L 155.457031 76.597656 L -41.042969 76.597656 Z M -41.042969 65.679688 " fill-opacity="1" fill-rule="nonzero"/><path fill="#ff7f07" d="M -41.042969 82.054688 L 155.457031 82.054688 L 155.457031 92.972656 L -41.042969 92.972656 Z M -41.042969 82.054688 " fill-opacity="1" fill-rule="nonzero"/><path fill="#ff0070" d="M -30.125 98.429688 L 150 98.429688 L 150 103.890625 L -30.125 103.890625 Z M -30.125 98.429688 " fill-opacity="1" fill-rule="nonzero"/><path fill="#ff0070" d="M -30.125 103.890625 L 144.542969 103.890625 L 144.542969 109.347656 L -30.125 109.347656 Z M -30.125 103.890625 " fill-opacity="1" fill-rule="nonzero"/><path fill="#ff0070" d="M -19.207031 120.265625 L 133.625 120.265625 L 133.625 131.179688 L -19.207031 131.179688 Z M -19.207031 120.265625 " fill-opacity="1" fill-rule="nonzero"/><path fill="#f20040" d="M 111.792969 142.097656 L -2.832031 142.097656 L -2.832031 147.554688 L 2.625 147.554688 L 2.625 153.015625 L 111.792969 153.015625 L 111.792969 147.554688 L 117.25 147.554688 L 117.25 142.097656 Z M 111.792969 142.097656 " fill-opacity="1" fill-rule="nonzero"/><path fill="#f20040" d="M 29.917969 158.472656 L 84.5 158.472656 L 84.5 163.929688 L 29.917969 163.929688 Z M 29.917969 158.472656 " fill-opacity="1" fill-rule="nonzero"/><path fill="#ff7f07" d="M 2.625 43.847656 L 8.082031 43.847656 L 8.082031 49.304688 L 2.625 49.304688 Z M 2.625 43.847656 " fill-opacity="0.5" fill-rule="nonzero"/><path fill="#ff7f07" d="M 13.542969 43.847656 L 19 43.847656 L 19 49.304688 L 13.542969 49.304688 Z M 13.542969 43.847656 " fill-opacity="0.5" fill-rule="nonzero"/><path fill="#ff7f07" d="M 24.457031 43.847656 L 29.917969 43.847656 L 29.917969 49.304688 L 24.457031 49.304688 Z M 24.457031 43.847656 " fill-opacity="0.5" fill-rule="nonzero"/><path fill="#ff7f07" d="M 35.375 43.847656 L 40.832031 43.847656 L 40.832031 49.304688 L 35.375 49.304688 Z M 35.375 43.847656 " fill-opacity="0.5" fill-rule="nonzero"/><path fill="#ff7f07" d="M 46.292969 43.847656 L 51.75 43.847656 L 51.75 49.304688 L 46.292969 49.304688 Z M 46.292969 43.847656 " fill-opacity="0.5" fill-rule="nonzero"/><path fill="#ff7f07" d="M 57.207031 43.847656 L 62.667969 43.847656 L 62.667969 49.304688 L 57.207031 49.304688 Z M 57.207031 43.847656 " fill-opacity="0.5" fill-rule="nonzero"/><path fill="#ff7f07" d="M 68.125 43.847656 L 73.582031 43.847656 L 73.582031 49.304688 L 68.125 49.304688 Z M 68.125 43.847656 " fill-opacity="0.5" fill-rule="nonzero"/><path fill="#ff7f07" d="M 79.042969 43.847656 L 84.5 43.847656 L 84.5 49.304688 L 79.042969 49.304688 Z M 79.042969 43.847656 " fill-opacity="0.5" fill-rule="nonzero"/><path fill="#ff7f07" d="M 89.957031 43.847656 L 95.417969 43.847656 L 95.417969 49.304688 L 89.957031 49.304688 Z M 89.957031 43.847656 " fill-opacity="0.5" fill-rule="nonzero"/><path fill="#ff7f07" d="M 100.875 43.847656 L 106.332031 43.847656 L 106.332031 49.304688 L 100.875 49.304688 Z M 100.875 43.847656 " fill-opacity="0.5" fill-rule="nonzero"/><path fill="#ff7f07" d="M 111.792969 43.847656 L 117.25 43.847656 L 117.25 49.304688 L 111.792969 49.304688 Z M 111.792969 43.847656 " fill-opacity="0.5" fill-rule="nonzero"/><path fill="#ff7f07" d="M 122.707031 43.847656 L 128.167969 43.847656 L 128.167969 49.304688 L 122.707031 49.304688 Z M 122.707031 43.847656 " fill-opacity="0.5" fill-rule="nonzero"/><path fill="#ff7f07" d="M 133.625 43.847656 L 139.082031 43.847656 L 139.082031 49.304688 L 133.625 49.304688 Z M 133.625 43.847656 " fill-opacity="0.5" fill-rule="nonzero"/><path fill="#ff7f07" d="M 144.542969 43.847656 L 150 43.847656 L 150 49.304688 L 144.542969 49.304688 Z M 144.542969 43.847656 " fill-opacity="0.5" fill-rule="nonzero"/><path fill="#ff7f07" d="M 2.625 32.929688 L 8.082031 32.929688 L 8.082031 38.390625 L 2.625 38.390625 Z M 2.625 32.929688 " fill-opacity="0.5" fill-rule="nonzero"/><path fill="#ff7f07" d="M 13.542969 32.929688 L 19 32.929688 L 19 38.390625 L 13.542969 38.390625 Z M 13.542969 32.929688 " fill-opacity="0.5" fill-rule="nonzero"/><path fill="#ff7f07" d="M 24.457031 32.929688 L 29.917969 32.929688 L 29.917969 38.390625 L 24.457031 38.390625 Z M 24.457031 32.929688 " fill-opacity="0.5" fill-rule="nonzero"/><path fill="#ff7f07" d="M 35.375 32.929688 L 40.832031 32.929688 L 40.832031 38.390625 L 35.375 38.390625 Z M 35.375 32.929688 " fill-opacity="0.5" fill-rule="nonzero"/><path fill="#ff7f07" d="M 46.292969 32.929688 L 51.75 32.929688 L 51.75 38.390625 L 46.292969 38.390625 Z M 46.292969 32.929688 " fill-opacity="0.5" fill-rule="nonzero"/><path fill="#ff7f07" d="M 57.207031 32.929688 L 62.667969 32.929688 L 62.667969 38.390625 L 57.207031 38.390625 Z M 57.207031 32.929688 " fill-opacity="0.5" fill-rule="nonzero"/><path fill="#ff7f07" d="M 68.125 32.929688 L 73.582031 32.929688 L 73.582031 38.390625 L 68.125 38.390625 Z M 68.125 32.929688 " fill-opacity="0.5" fill-rule="nonzero"/><path fill="#ff7f07" d="M 79.042969 32.929688 L 84.5 32.929688 L 84.5 38.390625 L 79.042969 38.390625 Z M 79.042969 32.929688 " fill-opacity="0.5" fill-rule="nonzero"/><path fill="#ff7f07" d="M 89.957031 32.929688 L 95.417969 32.929688 L 95.417969 38.390625 L 89.957031 38.390625 Z M 89.957031 32.929688 " fill-opacity="0.5" fill-rule="nonzero"/><path fill="#ff7f07" d="M 100.875 32.929688 L 106.332031 32.929688 L 106.332031 38.390625 L 100.875 38.390625 Z M 100.875 32.929688 " fill-opacity="0.5" fill-rule="nonzero"/><path fill="#ff7f07" d="M 111.792969 32.929688 L 117.25 32.929688 L 117.25 38.390625 L 111.792969 38.390625 Z M 111.792969 32.929688 " fill-opacity="0.5" fill-rule="nonzero"/><path fill="#ff7f07" d="M 122.707031 32.929688 L 128.167969 32.929688 L 128.167969 38.390625 L 122.707031 38.390625 Z M 122.707031 32.929688 " fill-opacity="0.5" fill-rule="nonzero"/><path fill="#ff7f07" d="M 133.625 32.929688 L 139.082031 32.929688 L 139.082031 38.390625 L 133.625 38.390625 Z M 133.625 32.929688 " fill-opacity="0.5" fill-rule="nonzero"/><path fill="#ff7f07" d="M 144.542969 32.929688 L 150 32.929688 L 150 38.390625 L 144.542969 38.390625 Z M 144.542969 32.929688 " fill-opacity="0.5" fill-rule="nonzero"/><path fill="#ff7f07" d="M 2.625 22.015625 L 8.082031 22.015625 L 8.082031 27.472656 L 2.625 27.472656 Z M 2.625 22.015625 " fill-opacity="0.25" fill-rule="nonzero"/><path fill="#ff7f07" d="M 13.542969 22.015625 L 19 22.015625 L 19 27.472656 L 13.542969 27.472656 Z M 13.542969 22.015625 " fill-opacity="0.25" fill-rule="nonzero"/><path fill="#ff7f07" d="M 24.457031 22.015625 L 29.917969 22.015625 L 29.917969 27.472656 L 24.457031 27.472656 Z M 24.457031 22.015625 " fill-opacity="0.25" fill-rule="nonzero"/><path fill="#ff7f07" d="M 35.375 22.015625 L 40.832031 22.015625 L 40.832031 27.472656 L 35.375 27.472656 Z M 35.375 22.015625 " fill-opacity="0.25" fill-rule="nonzero"/><path fill="#ff7f07" d="M 46.292969 22.015625 L 51.75 22.015625 L 51.75 27.472656 L 46.292969 27.472656 Z M 46.292969 22.015625 " fill-opacity="0.25" fill-rule="nonzero"/><path fill="#ff7f07" d="M 57.207031 22.015625 L 62.667969 22.015625 L 62.667969 27.472656 L 57.207031 27.472656 Z M 57.207031 22.015625 " fill-opacity="0.25" fill-rule="nonzero"/><path fill="#ff7f07" d="M 68.125 22.015625 L 73.582031 22.015625 L 73.582031 27.472656 L 68.125 27.472656 Z M 68.125 22.015625 " fill-opacity="0.25" fill-rule="nonzero"/><path fill="#ff7f07" d="M 79.042969 22.015625 L 84.5 22.015625 L 84.5 27.472656 L 79.042969 27.472656 Z M 79.042969 22.015625 " fill-opacity="0.25" fill-rule="nonzero"/><path fill="#ff7f07" d="M 89.957031 22.015625 L 95.417969 22.015625 L 95.417969 27.472656 L 89.957031 27.472656 Z M 89.957031 22.015625 " fill-opacity="0.25" fill-rule="nonzero"/><path fill="#ff7f07" d="M 100.875 22.015625 L 106.332031 22.015625 L 106.332031 27.472656 L 100.875 27.472656 Z M 100.875 22.015625 " fill-opacity="0.25" fill-rule="nonzero"/><path fill="#ff7f07" d="M 111.792969 22.015625 L 117.25 22.015625 L 117.25 27.472656 L 111.792969 27.472656 Z M 111.792969 22.015625 " fill-opacity="0.25" fill-rule="nonzero"/><path fill="#ff7f07" d="M 122.707031 22.015625 L 128.167969 22.015625 L 128.167969 27.472656 L 122.707031 27.472656 Z M 122.707031 22.015625 " fill-opacity="0.25" fill-rule="nonzero"/><path fill="#ff7f07" d="M 133.625 22.015625 L 139.082031 22.015625 L 139.082031 27.472656 L 133.625 27.472656 Z M 133.625 22.015625 " fill-opacity="0.25" fill-rule="nonzero"/><path fill="#ff7f07" d="M 144.542969 22.015625 L 150 22.015625 L 150 27.472656 L 144.542969 27.472656 Z M 144.542969 22.015625 " fill-opacity="0.25" fill-rule="nonzero"/><path fill="#ff7f07" d="M -2.832031 49.304688 L 2.625 49.304688 L 2.625 54.765625 L -2.832031 54.765625 Z M -2.832031 49.304688 " fill-opacity="1" fill-rule="nonzero"/><path fill="#ff7f07" d="M 8.082031 49.304688 L 13.542969 49.304688 L 13.542969 54.765625 L 8.082031 54.765625 Z M 8.082031 49.304688 " fill-opacity="1" fill-rule="nonzero"/><path fill="#ff7f07" d="M 19 49.304688 L 24.457031 49.304688 L 24.457031 54.765625 L 19 54.765625 Z M 19 49.304688 " fill-opacity="1" fill-rule="nonzero"/><path fill="#ff7f07" d="M 29.917969 49.304688 L 35.375 49.304688 L 35.375 54.765625 L 29.917969 54.765625 Z M 29.917969 49.304688 " fill-opacity="1" fill-rule="nonzero"/><path fill="#ff7f07" d="M 40.832031 49.304688 L 46.292969 49.304688 L 46.292969 54.765625 L 40.832031 54.765625 Z M 40.832031 49.304688 " fill-opacity="1" fill-rule="nonzero"/><path fill="#ff7f07" d="M 51.75 49.304688 L 57.207031 49.304688 L 57.207031 54.765625 L 51.75 54.765625 Z M 51.75 49.304688 " fill-opacity="1" fill-rule="nonzero"/><path fill="#ff7f07" d="M 62.667969 49.304688 L 68.125 49.304688 L 68.125 54.765625 L 62.667969 54.765625 Z M 62.667969 49.304688 " fill-opacity="1" fill-rule="nonzero"/><path fill="#ff7f07" d="M 73.582031 49.304688 L 79.042969 49.304688 L 79.042969 54.765625 L 73.582031 54.765625 Z M 73.582031 49.304688 " fill-opacity="1" fill-rule="nonzero"/><path fill="#ff7f07" d="M 84.5 49.304688 L 89.957031 49.304688 L 89.957031 54.765625 L 84.5 54.765625 Z M 84.5 49.304688 " fill-opacity="1" fill-rule="nonzero"/><path fill="#ff7f07" d="M 95.417969 49.304688 L 100.875 49.304688 L 100.875 54.765625 L 95.417969 54.765625 Z M 95.417969 49.304688 " fill-opacity="1" fill-rule="nonzero"/><path fill="#ff7f07" d="M 106.332031 49.304688 L 111.792969 49.304688 L 111.792969 54.765625 L 106.332031 54.765625 Z M 106.332031 49.304688 " fill-opacity="1" fill-rule="nonzero"/><path fill="#ff7f07" d="M 117.25 49.304688 L 122.707031 49.304688 L 122.707031 54.765625 L 117.25 54.765625 Z M 117.25 49.304688 " fill-opacity="1" fill-rule="nonzero"/><path fill="#ff7f07" d="M 128.167969 49.304688 L 133.625 49.304688 L 133.625 54.765625 L 128.167969 54.765625 Z M 128.167969 49.304688 " fill-opacity="1" fill-rule="nonzero"/><path fill="#ff7f07" d="M 139.082031 49.304688 L 144.542969 49.304688 L 144.542969 54.765625 L 139.082031 54.765625 Z M 139.082031 49.304688 " fill-opacity="1" fill-rule="nonzero"/><path fill="#ff7f07" d="M 150 49.304688 L 155.457031 49.304688 L 155.457031 54.765625 L 150 54.765625 Z M 150 49.304688 " fill-opacity="1" fill-rule="nonzero"/><path fill="#ff7f07" d="M 2.625 54.765625 L 8.082031 54.765625 L 8.082031 60.222656 L 2.625 60.222656 Z M 2.625 54.765625 " fill-opacity="1" fill-rule="nonzero"/><path fill="#ff7f07" d="M 13.542969 54.765625 L 19 54.765625 L 19 60.222656 L 13.542969 60.222656 Z M 13.542969 54.765625 " fill-opacity="1" fill-rule="nonzero"/><path fill="#ff7f07" d="M 24.457031 54.765625 L 29.917969 54.765625 L 29.917969 60.222656 L 24.457031 60.222656 Z M 24.457031 54.765625 " fill-opacity="1" fill-rule="nonzero"/><path fill="#ff7f07" d="M 35.375 54.765625 L 40.832031 54.765625 L 40.832031 60.222656 L 35.375 60.222656 Z M 35.375 54.765625 " fill-opacity="1" fill-rule="nonzero"/><path fill="#ff7f07" d="M 46.292969 54.765625 L 51.75 54.765625 L 51.75 60.222656 L 46.292969 60.222656 Z M 46.292969 54.765625 " fill-opacity="1" fill-rule="nonzero"/><path fill="#ff7f07" d="M 57.207031 54.765625 L 62.667969 54.765625 L 62.667969 60.222656 L 57.207031 60.222656 Z M 57.207031 54.765625 " fill-opacity="1" fill-rule="nonzero"/><path fill="#ff7f07" d="M 68.125 54.765625 L 73.582031 54.765625 L 73.582031 60.222656 L 68.125 60.222656 Z M 68.125 54.765625 " fill-opacity="1" fill-rule="nonzero"/><path fill="#ff7f07" d="M 79.042969 54.765625 L 84.5 54.765625 L 84.5 60.222656 L 79.042969 60.222656 Z M 79.042969 54.765625 " fill-opacity="1" fill-rule="nonzero"/><path fill="#ff7f07" d="M 89.957031 54.765625 L 95.417969 54.765625 L 95.417969 60.222656 L 89.957031 60.222656 Z M 89.957031 54.765625 " fill-opacity="1" fill-rule="nonzero"/><path fill="#ff7f07" d="M 100.875 54.765625 L 106.332031 54.765625 L 106.332031 60.222656 L 100.875 60.222656 Z M 100.875 54.765625 " fill-opacity="1" fill-rule="nonzero"/><path fill="#ff7f07" d="M 111.792969 54.765625 L 117.25 54.765625 L 117.25 60.222656 L 111.792969 60.222656 Z M 111.792969 54.765625 " fill-opacity="1" fill-rule="nonzero"/><path fill="#ff7f07" d="M 122.707031 54.765625 L 128.167969 54.765625 L 128.167969 60.222656 L 122.707031 60.222656 Z M 122.707031 54.765625 " fill-opacity="1" fill-rule="nonzero"/><path fill="#ff7f07" d="M 133.625 54.765625 L 139.082031 54.765625 L 139.082031 60.222656 L 133.625 60.222656 Z M 133.625 54.765625 " fill-opacity="1" fill-rule="nonzero"/><path fill="#ff7f07" d="M 144.542969 54.765625 L 150 54.765625 L 150 60.222656 L 144.542969 60.222656 Z M 144.542969 54.765625 " fill-opacity="1" fill-rule="nonzero"/><path fill="#ff7f07" d="M -41.042969 49.304688 L 155.457031 49.304688 L 155.457031 60.222656 L -41.042969 60.222656 Z M -41.042969 49.304688 " fill-opacity="0.5" fill-rule="nonzero"/><path fill="#ff7f07" d="M -41.042969 38.390625 L 155.457031 38.390625 L 155.457031 49.304688 L -41.042969 49.304688 Z M -41.042969 38.390625 " fill-opacity="0.2" fill-rule="nonzero"/><path fill="#ff7f07" d="M -35.582031 27.472656 L 150 27.472656 L 150 38.390625 L -35.582031 38.390625 Z M -35.582031 27.472656 " fill-opacity="0.1" fill-rule="nonzero"/><path fill="#ff0070" d="M -2.832031 82.054688 L 2.625 82.054688 L 2.625 87.515625 L -2.832031 87.515625 Z M -2.832031 82.054688 " fill-opacity="1" fill-rule="nonzero"/><path fill="#ff0070" d="M 8.082031 82.054688 L 13.542969 82.054688 L 13.542969 87.515625 L 8.082031 87.515625 Z M 8.082031 82.054688 " fill-opacity="1" fill-rule="nonzero"/><path fill="#ff0070" d="M 19 82.054688 L 24.457031 82.054688 L 24.457031 87.515625 L 19 87.515625 Z M 19 82.054688 " fill-opacity="1" fill-rule="nonzero"/><path fill="#ff0070" d="M 29.917969 82.054688 L 35.375 82.054688 L 35.375 87.515625 L 29.917969 87.515625 Z M 29.917969 82.054688 " fill-opacity="1" fill-rule="nonzero"/><path fill="#ff0070" d="M 40.832031 82.054688 L 46.292969 82.054688 L 46.292969 87.515625 L 40.832031 87.515625 Z M 40.832031 82.054688 " fill-opacity="1" fill-rule="nonzero"/><path fill="#ff0070" d="M 51.75 82.054688 L 57.207031 82.054688 L 57.207031 87.515625 L 51.75 87.515625 Z M 51.75 82.054688 " fill-opacity="1" fill-rule="nonzero"/><path fill="#ff0070" d="M 62.667969 82.054688 L 68.125 82.054688 L 68.125 87.515625 L 62.667969 87.515625 Z M 62.667969 82.054688 " fill-opacity="1" fill-rule="nonzero"/><path fill="#ff0070" d="M 73.582031 82.054688 L 79.042969 82.054688 L 79.042969 87.515625 L 73.582031 87.515625 Z M 73.582031 82.054688 " fill-opacity="1" fill-rule="nonzero"/><path fill="#ff0070" d="M 84.5 82.054688 L 89.957031 82.054688 L 89.957031 87.515625 L 84.5 87.515625 Z M 84.5 82.054688 " fill-opacity="1" fill-rule="nonzero"/><path fill="#ff0070" d="M 95.417969 82.054688 L 100.875 82.054688 L 100.875 87.515625 L 95.417969 87.515625 Z M 95.417969 82.054688 " fill-opacity="1" fill-rule="nonzero"/><path fill="#ff0070" d="M 106.332031 82.054688 L 111.792969 82.054688 L 111.792969 87.515625 L 106.332031 87.515625 Z M 106.332031 82.054688 " fill-opacity="1" fill-rule="nonzero"/><path fill="#ff0070" d="M 117.25 82.054688 L 122.707031 82.054688 L 122.707031 87.515625 L 117.25 87.515625 Z M 117.25 82.054688 " fill-opacity="1" fill-rule="nonzero"/><path fill="#ff0070" d="M 128.167969 82.054688 L 133.625 82.054688 L 133.625 87.515625 L 128.167969 87.515625 Z M 128.167969 82.054688 " fill-opacity="1" fill-rule="nonzero"/><path fill="#ff0070" d="M 139.082031 82.054688 L 144.542969 82.054688 L 144.542969 87.515625 L 139.082031 87.515625 Z M 139.082031 82.054688 " fill-opacity="1" fill-rule="nonzero"/><path fill="#ff0070" d="M 150 82.054688 L 155.457031 82.054688 L 155.457031 87.515625 L 150 87.515625 Z M 150 82.054688 " fill-opacity="1" fill-rule="nonzero"/><path fill="#ff0070" d="M 2.625 87.515625 L 8.082031 87.515625 L 8.082031 92.972656 L 2.625 92.972656 Z M 2.625 87.515625 " fill-opacity="1" fill-rule="nonzero"/><path fill="#ff0070" d="M 13.542969 87.515625 L 19 87.515625 L 19 92.972656 L 13.542969 92.972656 Z M 13.542969 87.515625 " fill-opacity="1" fill-rule="nonzero"/><path fill="#ff0070" d="M 24.457031 87.515625 L 29.917969 87.515625 L 29.917969 92.972656 L 24.457031 92.972656 Z M 24.457031 87.515625 " fill-opacity="1" fill-rule="nonzero"/><path fill="#ff0070" d="M 35.375 87.515625 L 40.832031 87.515625 L 40.832031 92.972656 L 35.375 92.972656 Z M 35.375 87.515625 " fill-opacity="1" fill-rule="nonzero"/><path fill="#ff0070" d="M 46.292969 87.515625 L 51.75 87.515625 L 51.75 92.972656 L 46.292969 92.972656 Z M 46.292969 87.515625 " fill-opacity="1" fill-rule="nonzero"/><path fill="#ff0070" d="M 57.207031 87.515625 L 62.667969 87.515625 L 62.667969 92.972656 L 57.207031 92.972656 Z M 57.207031 87.515625 " fill-opacity="1" fill-rule="nonzero"/><path fill="#ff0070" d="M 68.125 87.515625 L 73.582031 87.515625 L 73.582031 92.972656 L 68.125 92.972656 Z M 68.125 87.515625 " fill-opacity="1" fill-rule="nonzero"/><path fill="#ff0070" d="M 79.042969 87.515625 L 84.5 87.515625 L 84.5 92.972656 L 79.042969 92.972656 Z M 79.042969 87.515625 " fill-opacity="1" fill-rule="nonzero"/><path fill="#ff0070" d="M 89.957031 87.515625 L 95.417969 87.515625 L 95.417969 92.972656 L 89.957031 92.972656 Z M 89.957031 87.515625 " fill-opacity="1" fill-rule="nonzero"/><path fill="#ff0070" d="M 100.875 87.515625 L 106.332031 87.515625 L 106.332031 92.972656 L 100.875 92.972656 Z M 100.875 87.515625 " fill-opacity="1" fill-rule="nonzero"/><path fill="#ff0070" d="M 111.792969 87.515625 L 117.25 87.515625 L 117.25 92.972656 L 111.792969 92.972656 Z M 111.792969 87.515625 " fill-opacity="1" fill-rule="nonzero"/><path fill="#ff0070" d="M 122.707031 87.515625 L 128.167969 87.515625 L 128.167969 92.972656 L 122.707031 92.972656 Z M 122.707031 87.515625 " fill-opacity="1" fill-rule="nonzero"/><path fill="#ff0070" d="M 133.625 87.515625 L 139.082031 87.515625 L 139.082031 92.972656 L 133.625 92.972656 Z M 133.625 87.515625 " fill-opacity="1" fill-rule="nonzero"/><path fill="#ff0070" d="M 144.542969 87.515625 L 150 87.515625 L 150 92.972656 L 144.542969 92.972656 Z M 144.542969 87.515625 " fill-opacity="1" fill-rule="nonzero"/><path fill="#f20040" d="M 2.625 120.265625 L 8.082031 120.265625 L 8.082031 125.722656 L 2.625 125.722656 Z M 2.625 120.265625 " fill-opacity="1" fill-rule="nonzero"/><path fill="#f20040" d="M 13.542969 120.265625 L 19 120.265625 L 19 125.722656 L 13.542969 125.722656 Z M 13.542969 120.265625 " fill-opacity="1" fill-rule="nonzero"/><path fill="#f20040" d="M 24.457031 120.265625 L 29.917969 120.265625 L 29.917969 125.722656 L 24.457031 125.722656 Z M 24.457031 120.265625 " fill-opacity="1" fill-rule="nonzero"/><path fill="#f20040" d="M 35.375 120.265625 L 40.832031 120.265625 L 40.832031 125.722656 L 35.375 125.722656 Z M 35.375 120.265625 " fill-opacity="1" fill-rule="nonzero"/><path fill="#f20040" d="M 46.292969 120.265625 L 51.75 120.265625 L 51.75 125.722656 L 46.292969 125.722656 Z M 46.292969 120.265625 " fill-opacity="1" fill-rule="nonzero"/><path fill="#f20040" d="M 57.207031 120.265625 L 62.667969 120.265625 L 62.667969 125.722656 L 57.207031 125.722656 Z M 57.207031 120.265625 " fill-opacity="1" fill-rule="nonzero"/><path fill="#f20040" d="M 68.125 120.265625 L 73.582031 120.265625 L 73.582031 125.722656 L 68.125 125.722656 Z M 68.125 120.265625 " fill-opacity="1" fill-rule="nonzero"/><path fill="#f20040" d="M 79.042969 120.265625 L 84.5 120.265625 L 84.5 125.722656 L 79.042969 125.722656 Z M 79.042969 120.265625 " fill-opacity="1" fill-rule="nonzero"/><path fill="#f20040" d="M 89.957031 120.265625 L 95.417969 120.265625 L 95.417969 125.722656 L 89.957031 125.722656 Z M 89.957031 120.265625 " fill-opacity="1" fill-rule="nonzero"/><path fill="#f20040" d="M 100.875 120.265625 L 106.332031 120.265625 L 106.332031 125.722656 L 100.875 125.722656 Z M 100.875 120.265625 " fill-opacity="1" fill-rule="nonzero"/><path fill="#f20040" d="M 111.792969 120.265625 L 117.25 120.265625 L 117.25 125.722656 L 111.792969 125.722656 Z M 111.792969 120.265625 " fill-opacity="1" fill-rule="nonzero"/><path fill="#f20040" d="M 122.707031 120.265625 L 128.167969 120.265625 L 128.167969 125.722656 L 122.707031 125.722656 Z M 122.707031 120.265625 " fill-opacity="1" fill-rule="nonzero"/><path fill="#f20040" d="M 133.625 120.265625 L 139.082031 120.265625 L 139.082031 125.722656 L 133.625 125.722656 Z M 133.625 120.265625 " fill-opacity="1" fill-rule="nonzero"/><path fill="#f20040" d="M -2.832031 125.722656 L 2.625 125.722656 L 2.625 131.179688 L -2.832031 131.179688 Z M -2.832031 125.722656 " fill-opacity="1" fill-rule="nonzero"/><path fill="#f20040" d="M 8.082031 125.722656 L 13.542969 125.722656 L 13.542969 131.179688 L 8.082031 131.179688 Z M 8.082031 125.722656 " fill-opacity="1" fill-rule="nonzero"/><path fill="#f20040" d="M 19 125.722656 L 24.457031 125.722656 L 24.457031 131.179688 L 19 131.179688 Z M 19 125.722656 " fill-opacity="1" fill-rule="nonzero"/><path fill="#f20040" d="M 29.917969 125.722656 L 35.375 125.722656 L 35.375 131.179688 L 29.917969 131.179688 Z M 29.917969 125.722656 " fill-opacity="1" fill-rule="nonzero"/><path fill="#f20040" d="M 40.832031 125.722656 L 46.292969 125.722656 L 46.292969 131.179688 L 40.832031 131.179688 Z M 40.832031 125.722656 " fill-opacity="1" fill-rule="nonzero"/><path fill="#f20040" d="M 51.75 125.722656 L 57.207031 125.722656 L 57.207031 131.179688 L 51.75 131.179688 Z M 51.75 125.722656 " fill-opacity="1" fill-rule="nonzero"/><path fill="#f20040" d="M 62.667969 125.722656 L 68.125 125.722656 L 68.125 131.179688 L 62.667969 131.179688 Z M 62.667969 125.722656 " fill-opacity="1" fill-rule="nonzero"/><path fill="#f20040" d="M 73.582031 125.722656 L 79.042969 125.722656 L 79.042969 131.179688 L 73.582031 131.179688 Z M 73.582031 125.722656 " fill-opacity="1" fill-rule="nonzero"/><path fill="#f20040" d="M 84.5 125.722656 L 89.957031 125.722656 L 89.957031 131.179688 L 84.5 131.179688 Z M 84.5 125.722656 " fill-opacity="1" fill-rule="nonzero"/><path fill="#f20040" d="M 95.417969 125.722656 L 100.875 125.722656 L 100.875 131.179688 L 95.417969 131.179688 Z M 95.417969 125.722656 " fill-opacity="1" fill-rule="nonzero"/><path fill="#f20040" d="M 106.332031 125.722656 L 111.792969 125.722656 L 111.792969 131.179688 L 106.332031 131.179688 Z M 106.332031 125.722656 " fill-opacity="1" fill-rule="nonzero"/><path fill="#f20040" d="M 117.25 125.722656 L 122.707031 125.722656 L 122.707031 131.179688 L 117.25 131.179688 Z M 117.25 125.722656 " fill-opacity="1" fill-rule="nonzero"/><path fill="#f20040" d="M 128.167969 125.722656 L 133.625 125.722656 L 133.625 131.179688 L 128.167969 131.179688 Z M 128.167969 125.722656 " fill-opacity="1" fill-rule="nonzero"/><path fill="#ff7f07" d="M -2.832031 98.429688 L 2.625 98.429688 L 2.625 103.890625 L -2.832031 103.890625 Z M -2.832031 98.429688 " fill-opacity="1" fill-rule="nonzero"/><path fill="#ff7f07" d="M 8.082031 98.429688 L 13.542969 98.429688 L 13.542969 103.890625 L 8.082031 103.890625 Z M 8.082031 98.429688 " fill-opacity="1" fill-rule="nonzero"/><path fill="#ff7f07" d="M 19 98.429688 L 24.457031 98.429688 L 24.457031 103.890625 L 19 103.890625 Z M 19 98.429688 " fill-opacity="1" fill-rule="nonzero"/><path fill="#ff7f07" d="M 29.917969 98.429688 L 35.375 98.429688 L 35.375 103.890625 L 29.917969 103.890625 Z M 29.917969 98.429688 " fill-opacity="1" fill-rule="nonzero"/><path fill="#ff7f07" d="M 40.832031 98.429688 L 46.292969 98.429688 L 46.292969 103.890625 L 40.832031 103.890625 Z M 40.832031 98.429688 " fill-opacity="1" fill-rule="nonzero"/><path fill="#ff7f07" d="M 51.75 98.429688 L 57.207031 98.429688 L 57.207031 103.890625 L 51.75 103.890625 Z M 51.75 98.429688 " fill-opacity="1" fill-rule="nonzero"/><path fill="#ff7f07" d="M 62.667969 98.429688 L 68.125 98.429688 L 68.125 103.890625 L 62.667969 103.890625 Z M 62.667969 98.429688 " fill-opacity="1" fill-rule="nonzero"/><path fill="#ff7f07" d="M 73.582031 98.429688 L 79.042969 98.429688 L 79.042969 103.890625 L 73.582031 103.890625 Z M 73.582031 98.429688 " fill-opacity="1" fill-rule="nonzero"/><path fill="#ff7f07" d="M 84.5 98.429688 L 89.957031 98.429688 L 89.957031 103.890625 L 84.5 103.890625 Z M 84.5 98.429688 " fill-opacity="1" fill-rule="nonzero"/><path fill="#ff7f07" d="M 95.417969 98.429688 L 100.875 98.429688 L 100.875 103.890625 L 95.417969 103.890625 Z M 95.417969 98.429688 " fill-opacity="1" fill-rule="nonzero"/><path fill="#ff7f07" d="M 106.332031 98.429688 L 111.792969 98.429688 L 111.792969 103.890625 L 106.332031 103.890625 Z M 106.332031 98.429688 " fill-opacity="1" fill-rule="nonzero"/><path fill="#ff7f07" d="M 117.25 98.429688 L 122.707031 98.429688 L 122.707031 103.890625 L 117.25 103.890625 Z M 117.25 98.429688 " fill-opacity="1" fill-rule="nonzero"/><path fill="#ff7f07" d="M 128.167969 98.429688 L 133.625 98.429688 L 133.625 103.890625 L 128.167969 103.890625 Z M 128.167969 98.429688 " fill-opacity="1" fill-rule="nonzero"/><path fill="#ff7f07" d="M 139.082031 98.429688 L 144.542969 98.429688 L 144.542969 103.890625 L 139.082031 103.890625 Z M 139.082031 98.429688 " fill-opacity="1" fill-rule="nonzero"/><path fill="#ff0070" d="M 2.625 142.097656 L 8.082031 142.097656 L 8.082031 147.554688 L 2.625 147.554688 Z M 2.625 142.097656 " fill-opacity="1" fill-rule="nonzero"/><path fill="#ff0070" d="M 13.542969 142.097656 L 19 142.097656 L 19 147.554688 L 13.542969 147.554688 Z M 13.542969 142.097656 " fill-opacity="1" fill-rule="nonzero"/><path fill="#ff0070" d="M 24.457031 142.097656 L 29.917969 142.097656 L 29.917969 147.554688 L 24.457031 147.554688 Z M 24.457031 142.097656 " fill-opacity="1" fill-rule="nonzero"/><path fill="#ff0070" d="M 35.375 142.097656 L 40.832031 142.097656 L 40.832031 147.554688 L 35.375 147.554688 Z M 35.375 142.097656 " fill-opacity="1" fill-rule="nonzero"/><path fill="#ff0070" d="M 46.292969 142.097656 L 51.75 142.097656 L 51.75 147.554688 L 46.292969 147.554688 Z M 46.292969 142.097656 " fill-opacity="1" fill-rule="nonzero"/><path fill="#ff0070" d="M 57.207031 142.097656 L 62.667969 142.097656 L 62.667969 147.554688 L 57.207031 147.554688 Z M 57.207031 142.097656 " fill-opacity="1" fill-rule="nonzero"/><path fill="#ff0070" d="M 68.125 142.097656 L 73.582031 142.097656 L 73.582031 147.554688 L 68.125 147.554688 Z M 68.125 142.097656 " fill-opacity="1" fill-rule="nonzero"/><path fill="#ff0070" d="M 79.042969 142.097656 L 84.5 142.097656 L 84.5 147.554688 L 79.042969 147.554688 Z M 79.042969 142.097656 " fill-opacity="1" fill-rule="nonzero"/><path fill="#ff0070" d="M 89.957031 142.097656 L 95.417969 142.097656 L 95.417969 147.554688 L 89.957031 147.554688 Z M 89.957031 142.097656 " fill-opacity="1" fill-rule="nonzero"/><path fill="#ff0070" d="M 100.875 142.097656 L 106.332031 142.097656 L 106.332031 147.554688 L 100.875 147.554688 Z M 100.875 142.097656 " fill-opacity="1" fill-rule="nonzero"/><path fill="#ff0070" d="M 111.792969 142.097656 L 117.25 142.097656 L 117.25 147.554688 L 111.792969 147.554688 Z M 111.792969 142.097656 " fill-opacity="1" fill-rule="nonzero"/><path fill="#ffd100" d="M -2.832031 65.679688 L 2.625 65.679688 L 2.625 71.140625 L -2.832031 71.140625 Z M -2.832031 65.679688 " fill-opacity="1" fill-rule="nonzero"/><path fill="#ffd100" d="M 8.082031 65.679688 L 13.542969 65.679688 L 13.542969 71.140625 L 8.082031 71.140625 Z M 8.082031 65.679688 " fill-opacity="1" fill-rule="nonzero"/><path fill="#ffd100" d="M 19 65.679688 L 24.457031 65.679688 L 24.457031 71.140625 L 19 71.140625 Z M 19 65.679688 " fill-opacity="1" fill-rule="nonzero"/><path fill="#ffd100" d="M 29.917969 65.679688 L 35.375 65.679688 L 35.375 71.140625 L 29.917969 71.140625 Z M 29.917969 65.679688 " fill-opacity="1" fill-rule="nonzero"/><path fill="#ffd100" d="M 40.832031 65.679688 L 46.292969 65.679688 L 46.292969 71.140625 L 40.832031 71.140625 Z M 40.832031 65.679688 " fill-opacity="1" fill-rule="nonzero"/><path fill="#ffd100" d="M 51.75 65.679688 L 57.207031 65.679688 L 57.207031 71.140625 L 51.75 71.140625 Z M 51.75 65.679688 " fill-opacity="1" fill-rule="nonzero"/><path fill="#ffd100" d="M 62.667969 65.679688 L 68.125 65.679688 L 68.125 71.140625 L 62.667969 71.140625 Z M 62.667969 65.679688 " fill-opacity="1" fill-rule="nonzero"/><path fill="#ffd100" d="M 73.582031 65.679688 L 79.042969 65.679688 L 79.042969 71.140625 L 73.582031 71.140625 Z M 73.582031 65.679688 " fill-opacity="1" fill-rule="nonzero"/><path fill="#ffd100" d="M 84.5 65.679688 L 89.957031 65.679688 L 89.957031 71.140625 L 84.5 71.140625 Z M 84.5 65.679688 " fill-opacity="1" fill-rule="nonzero"/><path fill="#ffd100" d="M 95.417969 65.679688 L 100.875 65.679688 L 100.875 71.140625 L 95.417969 71.140625 Z M 95.417969 65.679688 " fill-opacity="1" fill-rule="nonzero"/><path fill="#ffd100" d="M 106.332031 65.679688 L 111.792969 65.679688 L 111.792969 71.140625 L 106.332031 71.140625 Z M 106.332031 65.679688 " fill-opacity="1" fill-rule="nonzero"/><path fill="#ffd100" d="M 117.25 65.679688 L 122.707031 65.679688 L 122.707031 71.140625 L 117.25 71.140625 Z M 117.25 65.679688 " fill-opacity="1" fill-rule="nonzero"/><path fill="#ffd100" d="M 128.167969 65.679688 L 133.625 65.679688 L 133.625 71.140625 L 128.167969 71.140625 Z M 128.167969 65.679688 " fill-opacity="1" fill-rule="nonzero"/><path fill="#ffd100" d="M 139.082031 65.679688 L 144.542969 65.679688 L 144.542969 71.140625 L 139.082031 71.140625 Z M 139.082031 65.679688 " fill-opacity="1" fill-rule="nonzero"/><path d="M 150 65.679688 L 155.457031 65.679688 L 155.457031 71.140625 L 150 71.140625 Z M 150 65.679688 " fill-opacity="1" fill-rule="nonzero" style="fill: rgb(18, 2, 43);"/></svg>